<svg width="25" height="24" viewBox="0 0 25 24" fill="none" xmlns="http://www.w3.org/2000/svg">
<path d="M9.83368 10.5C9.00643 10.5 8.33368 9.82725 8.33368 9C8.33368 8.17275 9.00643 7.5 9.83368 7.5C10.6609 7.5 11.3337 8.17275 11.3337 9C11.3337 9.82725 10.6609 10.5 9.83368 10.5ZM15.8337 16.5008C15.0064 16.5008 14.3337 15.828 14.3337 15.0008C14.3337 14.1735 15.0064 13.5008 15.8337 13.5008C16.6609 13.5008 17.3337 14.1735 17.3337 15.0008C17.3337 15.828 16.6609 16.5008 15.8337 16.5008ZM9.61393 16.2818L17.1139 8.78175C17.4072 8.4885 17.4072 8.0145 17.1139 7.72125C16.8207 7.428 16.3467 7.428 16.0534 7.72125L8.55343 15.2213C8.26018 15.5145 8.26018 15.9885 8.55343 16.2818C8.69968 16.428 8.89168 16.5015 9.08368 16.5015C9.27568 16.5015 9.46768 16.428 9.61393 16.2818Z" fill="#7C7C7C"/>
<path d="M9.82279 22.5023C9.40729 22.5023 8.98954 22.4205 8.58679 22.2533C7.50604 21.8055 6.77554 20.8455 6.63304 19.6845C6.53704 18.9068 5.92729 18.2963 5.14954 18.201C3.98854 18.0585 3.02779 17.3273 2.58004 16.2473C2.13229 15.1673 2.29504 13.971 3.01504 13.0493C3.49729 12.432 3.49729 11.5688 3.01504 10.9515C2.29504 10.0298 2.13229 8.83426 2.58004 7.75351C3.02779 6.67276 3.98854 5.94226 5.14954 5.79976C5.92654 5.70451 6.53704 5.09476 6.63304 4.31626C6.77554 3.15526 7.50604 2.19451 8.58679 1.74751C9.66604 1.29901 10.863 1.46251 11.7848 2.18251C12.4028 2.66476 13.2645 2.66476 13.8825 2.18251C14.8043 1.46176 15.9998 1.29976 17.0805 1.74751C18.1613 2.19526 18.8918 3.15526 19.0343 4.31626C19.1303 5.09401 19.74 5.70451 20.5178 5.79976C21.6788 5.94226 22.6395 6.67351 23.0873 7.75351C23.535 8.83351 23.3723 10.0298 22.6523 10.9515C22.17 11.5688 22.17 12.432 22.6523 13.0493C23.3723 13.971 23.535 15.1665 23.0873 16.2473C22.6395 17.328 21.6788 18.0585 20.5178 18.201C19.7408 18.2963 19.1303 18.906 19.0343 19.6845C18.8918 20.8455 18.1613 21.8063 17.0805 22.2533C15.9998 22.7003 14.8043 22.5375 13.8825 21.8183C13.2645 21.336 12.4028 21.336 11.7848 21.8183C11.2065 22.2698 10.5203 22.5023 9.82354 22.5023H9.82279ZM9.81754 3.00076C9.59704 3.00076 9.37429 3.04426 9.15979 3.13276C8.58529 3.37051 8.19679 3.88201 8.12029 4.49926C7.94029 5.96176 6.79354 7.10851 5.33179 7.28851C4.71454 7.36426 4.20304 7.75276 3.96529 8.32726C3.72754 8.90251 3.81379 9.53776 4.19704 10.0283C5.10379 11.19 5.10379 12.8115 4.19704 13.9725C3.81379 14.463 3.72754 15.0983 3.96529 15.6735C4.20304 16.248 4.71454 16.6365 5.33179 16.7123C6.79354 16.8923 7.94029 18.039 8.12029 19.5015C8.19679 20.1188 8.58529 20.6295 9.15979 20.868C9.73579 21.105 10.3703 21.0188 10.8615 20.6363C12.0218 19.7295 13.6448 19.7295 14.805 20.6363C15.2948 21.0188 15.9308 21.105 16.5068 20.868C17.0813 20.6303 17.4698 20.1188 17.5463 19.5015C17.7263 18.039 18.873 16.8923 20.3348 16.7123C20.952 16.6365 21.4635 16.248 21.7013 15.6735C21.939 15.0983 21.8528 14.463 21.4695 13.9725C20.5628 12.8108 20.5628 11.1893 21.4695 10.0283C21.8528 9.53776 21.939 8.90251 21.7013 8.32726C21.4635 7.75276 20.952 7.36426 20.3348 7.28851C18.873 7.10851 17.7263 5.96176 17.5463 4.49926C17.4698 3.88201 17.0813 3.37126 16.5068 3.13276C15.93 2.89501 15.2955 2.98051 14.805 3.36451C13.6448 4.27126 12.0218 4.27126 10.8615 3.36451C10.554 3.12451 10.1895 3.00076 9.81754 3.00076Z" fill="#7C7C7C"/>
</svg>
