<svg width="20" height="20" viewBox="0 0 20 20" fill="none" xmlns="http://www.w3.org/2000/svg">
<path d="M15.47 6.46997C15.763 6.17697 16.238 6.17697 16.531 6.46997L19.531 9.46997C19.6 9.53897 19.655 9.62211 19.693 9.71411C19.769 9.89711 19.769 10.1041 19.693 10.2871C19.655 10.3791 19.6 10.462 19.531 10.531L16.531 13.531C16.238 13.824 15.763 13.824 15.47 13.531C15.324 13.385 15.25 13.193 15.25 13.001C15.25 12.809 15.323 12.6169 15.47 12.4709L17.19 10.751L6.00001 10.751C5.58601 10.751 5.25001 10.415 5.25001 10.001C5.25001 9.58698 5.58601 9.25098 6.00001 9.25098L17.189 9.25098L15.469 7.53101C15.177 7.23701 15.177 6.76297 15.47 6.46997ZM12.75 16C12.75 15.586 12.414 15.25 12 15.25C11.586 15.25 11.25 15.586 11.25 16C11.25 17.577 10.577 18.25 9.00001 18.25L4.00001 18.25C2.42301 18.25 1.75001 17.577 1.75001 16L1.75001 4C1.75001 2.423 2.42301 1.75 4.00001 1.75L9.00001 1.75C10.577 1.75 11.25 2.423 11.25 4C11.25 4.414 11.586 4.75 12 4.75C12.414 4.75 12.75 4.414 12.75 4C12.75 1.582 11.418 0.25 9.00001 0.25L4.00001 0.249999C1.58201 0.249999 0.250008 1.582 0.250007 4L0.250007 16C0.250007 18.418 1.58201 19.75 4.00001 19.75L9.00001 19.75C11.418 19.75 12.75 18.418 12.75 16Z" fill="white"/>
</svg>
