<svg width="17" height="20" viewBox="0 0 17 20" fill="none" xmlns="http://www.w3.org/2000/svg">
<path d="M16.53 6.47L10.53 0.470001C10.389 0.329001 10.199 0.25 10 0.25H4C1.582 0.25 0.25 1.582 0.25 4V16C0.25 18.418 1.582 19.75 4 19.75H13C15.418 19.75 16.75 18.418 16.75 16V7C16.75 6.801 16.671 6.61 16.53 6.47ZM10.75 2.811L14.189 6.25H13C11.423 6.25 10.75 5.577 10.75 4V2.811ZM13 18.25H4C2.423 18.25 1.75 17.577 1.75 16V4C1.75 2.423 2.423 1.75 4 1.75H9.25V4C9.25 6.418 10.582 7.75 13 7.75H15.25V16C15.25 17.577 14.577 18.25 13 18.25ZM12.75 10C12.75 10.414 12.414 10.75 12 10.75H5C4.586 10.75 4.25 10.414 4.25 10C4.25 9.586 4.586 9.25 5 9.25H12C12.414 9.25 12.75 9.586 12.75 10ZM9.75 14C9.75 14.414 9.414 14.75 9 14.75H5C4.586 14.75 4.25 14.414 4.25 14C4.25 13.586 4.586 13.25 5 13.25H9C9.414 13.25 9.75 13.586 9.75 14Z" fill="white"/>
</svg>
