<svg width="21" height="20" viewBox="0 0 21 20" fill="none" xmlns="http://www.w3.org/2000/svg">
<path d="M16.5 19.7503H12.25V14.5003C12.25 13.5353 11.465 12.7503 10.5 12.7503C9.535 12.7503 8.75 13.5353 8.75 14.5003V19.7503H4.5C2.082 19.7503 0.75 18.4183 0.75 16.0003V9.65029C0.75 7.52729 1.33599 6.93425 2.29199 6.14125L8.41199 1.01027C9.62099 -0.00472653 11.379 -0.00472653 12.588 1.01027L18.708 6.14125C19.664 6.93425 20.25 7.52829 20.25 9.65029V16.0003C20.25 18.4183 18.918 19.7503 16.5 19.7503ZM13.75 18.2503H16.5C18.077 18.2503 18.75 17.5773 18.75 16.0003V9.65029C18.75 8.12429 18.498 7.91531 17.751 7.29531L11.625 2.15932C10.973 1.61332 10.027 1.61332 9.375 2.15932L3.24902 7.29531C2.50202 7.91531 2.25 8.12429 2.25 9.65029V16.0003C2.25 17.5773 2.923 18.2503 4.5 18.2503H7.25V14.5003C7.25 12.7083 8.708 11.2503 10.5 11.2503C12.292 11.2503 13.75 12.7083 13.75 14.5003V18.2503Z" fill="#7C7C7C"/>
</svg>
