<svg width="198" height="160" viewBox="0 0 198 160" fill="none" xmlns="http://www.w3.org/2000/svg">
<path fill-rule="evenodd" clip-rule="evenodd" d="M91.973 95.5821L91.8729 97.3613C92.2253 96.9749 92.3611 96.7414 92.6822 96.3536L93.5707 95.346C94.4155 90.5754 97.2817 87.3837 98.3616 75.4183C100.383 53.021 84.8423 40.2012 66.6885 32.8208C48.595 25.4647 21.4798 20.8749 6.51854 7.98912C5.30869 6.94734 4.26173 5.9933 3.24316 4.87869C2.15412 3.68736 1.43082 2.42459 0 1.43848C1.20625 12.3401 13.8238 23.5802 20.8531 28.0711C29.9128 33.8592 41.4908 39.1113 53.4563 41.8004C70.4299 45.615 86.4924 55.6531 91.4084 73.6992C93.9159 82.9038 92.0374 86.7477 91.973 95.5821ZM91.9779 99.1368L91.9539 98.3391C91.5016 97.0283 92.0187 97.0453 91.4648 98.0348L91.9779 99.1368Z" fill="#1C6E28"/>
<path fill-rule="evenodd" clip-rule="evenodd" d="M106.15 98.6389C106.016 94.2544 103.018 86.4301 105.005 75.9864C109.197 55.2575 124.759 45.8062 142.425 41.0471C159.471 36.5592 176.85 29.5947 188.688 16.2635C190.667 14.0347 192.284 11.8795 193.872 9.17029C195.339 6.66584 197.005 3.15417 197.097 0L193.298 4.30884C188.046 9.58047 184.536 11.5809 177.962 14.9657C155.832 26.1893 130.073 26.3659 110.26 44.0474C109.697 44.55 108.363 45.3571 108.062 45.967C107.113 47.8918 106.834 46.7422 105.466 49.0916C100.589 57.4638 98.7365 61.654 98.9375 71.8377C99.0922 79.6692 101.334 92.5193 106.15 98.6389Z" fill="#1C6E28"/>
<path fill-rule="evenodd" clip-rule="evenodd" d="M163.351 45.6459C162.551 48.4966 161.566 51.081 160.402 53.3191C158.661 56.6696 157.24 57.4835 155.873 59.7397C170.363 60.9745 184.265 52.7056 191.502 39.9288C193.504 36.3945 196.239 30.2652 196.469 25.3662C192.183 29.1722 192.099 32.5567 182.588 38.0984C177.018 41.3434 170.681 44.2118 163.351 45.6459Z" fill="#1C6E28"/>
<path fill-rule="evenodd" clip-rule="evenodd" d="M41.0966 60.9171C40.7329 59.6433 38.2503 56.8716 37.4618 55.5321C31.5956 45.5676 38.244 48.4907 28.8208 45.5273C20.0185 42.7588 9.17042 37.487 3.34019 29.6655C2.90206 29.0776 2.76929 28.8214 2.31533 28.31L0.843262 26.8828C1.56593 37.0186 8.91474 47.006 14.2466 51.6937C20.3011 57.0168 30.613 61.5222 41.0966 60.9171Z" fill="#1C6E28"/>
<path fill-rule="evenodd" clip-rule="evenodd" d="M116.405 64.0005C123.511 60.7137 139.935 67.3484 150.582 56.6071C152.795 54.3744 155.829 50.3134 156.407 47.0083C143.428 47.6191 133.358 48.6462 123.254 56.5257C121.124 58.1866 116.984 61.971 116.405 64.0005Z" fill="#1C6E28"/>
<path fill-rule="evenodd" clip-rule="evenodd" d="M80.1242 65.143L77.6104 60.9381C68.3116 51.5926 52.5583 47.0582 40.7036 48.3368C48.1662 70.9929 73.7961 61.0458 80.1242 65.143Z" fill="#1C6E28"/>
<path fill-rule="evenodd" clip-rule="evenodd" d="M53.5236 80.4923C52.1915 77.9737 47.2645 76.2923 45.3325 68.7873C29.6643 69.6053 20.9123 64.7412 10.9224 58.1104C11.9803 64.9092 21.3197 72.3881 26.4733 75.2832C34.5658 79.8293 42.7673 80.1953 53.5236 80.4923Z" fill="#1C6E28"/>
<path fill-rule="evenodd" clip-rule="evenodd" d="M144.116 78.6036C145.886 79.9472 149.281 79.3822 151.362 79.2691C161.73 78.705 172.434 75.2181 179.827 67.2277C181.825 65.0679 185.966 60.0534 186.319 56.9375C177.348 62.2233 169.404 68.2738 156.331 67.8751C147.911 67.6184 154.925 67.0745 147.963 74.9085L144.116 78.6036Z" fill="#1C6E28"/>
<path fill-rule="evenodd" clip-rule="evenodd" d="M86.8589 76.7152C86.6743 65.6194 66.164 69.618 60.2008 69.2552L51.2354 68.4761C61.7585 86.475 78.6811 74.1611 86.8589 76.7152Z" fill="#1C6E28"/>
<path fill-rule="evenodd" clip-rule="evenodd" d="M138.046 83.3147C128.616 84.6764 127.103 82.5326 119.056 81.7178C110.943 80.8963 107.436 85.9059 109.787 95.0011C111.126 100.179 110.066 94.2138 114.438 92.3879C118.214 90.8105 121.103 92.1802 124.666 92.3859C130.359 92.7143 136.577 87.9613 138.046 83.3147Z" fill="#1C6E28"/>
<path fill-rule="evenodd" clip-rule="evenodd" d="M114.473 69.522C113.783 69.9498 110.661 73.8796 110.373 74.4996C110.778 75.0096 114.507 74.6828 116.335 75.3575C120.757 76.5554 129.468 78.2238 133.834 77.0196C142.471 74.6377 142.955 69.3141 143.546 68.9275C144.621 68.2253 144.043 69.1201 143.355 67.6885C143.118 67.1957 144.203 67.2214 141.998 67.624C134.823 68.9332 130.052 67.6535 123.06 67.605C119.89 67.6123 117.32 67.9159 114.473 69.522Z" fill="#1C6E28"/>
<path fill-rule="evenodd" clip-rule="evenodd" d="M59.25 84.3879L60.1764 86.4836C62.3088 90.5232 67.4119 93.4534 71.8961 93.4099C78.8486 93.3425 81.9352 90.2479 86.3744 97.3733L86.87 98.1181C91.1753 69.9989 70.7982 89.5141 59.25 84.3879Z" fill="#1C6E28"/>
<path fill-rule="evenodd" clip-rule="evenodd" d="M166.376 86.6683C167.556 84.5293 166.855 85.8707 166.427 85.3311C162.177 85.8262 159.975 86.3779 155.244 86.2417C151.222 86.1258 147.579 85.0538 143.558 85.2306C138.117 93.6014 139.941 89.6345 137.077 93.5723C148.657 96.9186 159.585 93.7555 166.376 86.6683Z" fill="#1C6E28"/>
<path fill-rule="evenodd" clip-rule="evenodd" d="M58.0389 95.2025C58.0389 93.7304 57.7295 94.1591 59.1818 94.1591C56.7373 94.5734 59.0255 94.3093 58.2815 93.2144C57.4044 91.2005 55.6095 90.5082 53.771 86.1382C47.1822 86.6363 36.9057 88.1024 30.6659 86.5513C30.3044 86.4613 30.3376 86.7098 30.1104 87.1749C31.7226 87.3016 29.7187 87.8986 31.1087 87.7113C31.417 87.6698 31.2246 88.1114 31.1657 88.3571C32.1754 87.9078 31.4235 88.6521 32.1801 89.182C33.1561 89.866 33.0623 90.5219 33.9087 90.8865C36.9351 92.1903 38.033 93.5311 41.8088 94.6776C47.5892 96.4327 51.3583 96.3006 57.1857 95.3426L58.0389 95.2025Z" fill="#1C6E28"/>
<path fill-rule="evenodd" clip-rule="evenodd" d="M55.1394 41.0471C37.9789 36.5592 20.4839 29.5947 8.56719 16.2635C6.57493 14.0347 4.94643 11.8795 3.3482 9.17029C1.87095 6.66584 0.194153 3.15417 0.101562 0L3.92635 4.30884C9.21354 9.58047 12.7466 11.5809 19.3642 14.9657C41.5859 26.1629 67.7272 26.4394 87.5217 44.0465C88.079 44.5423 89.4741 45.3837 89.7518 45.9766C90.7662 48.1407 90.8888 46.4275 92.3576 49.0955C95.7373 55.2339 97.7175 57.6214 98.6151 65.1762C99.5634 74.0985 97.6238 91.5595 91.8536 98.1948C91.6496 96.5569 93.1701 89.1104 93.3673 86.4722C94.7257 68.3368 84.6642 54.2109 70.212 46.7179C65.3426 44.1933 60.3596 42.4706 55.1394 41.0471Z" fill="#1C6E28"/>
<path fill-rule="evenodd" clip-rule="evenodd" d="M25.3731 102.981L31.9037 152.928H20.2393L19.6195 143.962H15.5031L14.8833 152.928H3.0708L8.86136 102.981H25.3731ZM19.3142 135.122C18.7684 129.46 18.1949 122.451 17.5844 114.084C16.4559 123.682 15.7436 130.691 15.4383 135.122H19.3142ZM58.452 112.011V143.53C58.452 147.782 58.3688 150.539 58.193 151.781C58.0265 153.023 57.4067 154.338 56.3614 155.727C55.3069 157.117 53.8454 158.179 51.9768 158.906C50.099 159.632 47.7402 160 44.9004 160C41.4038 160 38.601 159.327 36.4826 157.98C34.3643 156.632 33.2728 153.98 33.1989 150.023H43.7996C43.7996 151.833 44.3916 152.739 45.5757 152.739C46.4267 152.739 46.991 152.465 47.2684 151.907C47.546 151.349 47.6847 150.181 47.6847 148.413V145.319C46.7412 146.287 45.7421 147.014 44.7061 147.508C43.6608 148.003 42.5693 148.255 41.4223 148.255C39.4427 148.255 37.8147 147.803 36.5382 146.898C35.2524 145.993 34.3829 144.803 33.9112 143.341C33.4393 141.867 33.1989 139.773 33.1989 137.058V122.198C33.1989 118.315 33.8187 115.515 35.0488 113.811C36.2884 112.106 38.1754 111.253 40.7007 111.253C42.0791 111.253 43.3371 111.579 44.4749 112.221C45.6126 112.863 46.6302 113.821 47.5183 115.105L48.2953 112.011H58.452ZM47.5183 122.861C47.5183 120.988 47.4165 119.799 47.2222 119.283C47.028 118.767 46.5932 118.515 45.9272 118.515C45.2704 118.515 44.8079 118.809 44.5396 119.388C44.2714 119.978 44.1326 121.135 44.1326 122.861V136.616C44.1326 138.447 44.2344 139.636 44.4379 140.173C44.6414 140.72 45.0762 140.994 45.7237 140.994C46.473 140.994 46.9632 140.668 47.1852 140.005C47.4072 139.352 47.5183 137.858 47.5183 135.532V122.861ZM73.1876 112.011L72.7991 117.399C74.3994 113.526 76.712 111.485 79.7368 111.253V125.65C77.7295 125.65 76.2495 125.955 75.3059 126.576C74.3624 127.197 73.7889 128.049 73.5668 129.154C73.3541 130.249 73.2432 132.785 73.2432 136.763V152.928H62.3093V112.011H73.1876ZM93.4364 102.981V109.485H82.1696V102.981H93.4364ZM93.4364 112.011V152.928H82.1696V112.011H93.4364ZM107.497 102.981H118.995C122.103 102.981 124.489 103.255 126.164 103.813C127.829 104.371 129.087 105.17 129.929 106.212C130.77 107.265 131.335 108.538 131.64 110.022C131.936 111.516 132.084 113.821 132.084 116.947V121.293C132.084 124.471 131.797 126.797 131.214 128.249C130.641 129.712 129.577 130.838 128.042 131.617C126.497 132.396 124.48 132.785 121.992 132.785H118.93V152.928H107.497V102.981ZM118.93 111.506V124.229C119.254 124.25 119.531 124.261 119.763 124.261C120.808 124.261 121.529 123.966 121.936 123.377C122.334 122.798 122.538 121.577 122.538 119.725V115.61C122.538 113.905 122.306 112.79 121.835 112.274C121.372 111.758 120.401 111.506 118.93 111.506ZM144.794 127.86H134.526V125.113C134.526 121.946 134.85 119.504 135.488 117.778C136.126 116.063 137.421 114.547 139.355 113.232C141.288 111.916 143.795 111.253 146.893 111.253C150.594 111.253 153.387 112 155.265 113.495C157.143 114.979 158.271 116.81 158.651 118.978C159.03 121.146 159.224 125.618 159.224 132.385V152.928H148.568V149.276C147.902 150.75 147.032 151.844 145.978 152.581C144.923 153.317 143.665 153.686 142.194 153.686C140.28 153.686 138.522 153.075 136.922 151.855C135.321 150.623 134.526 147.95 134.526 143.814V140.447C134.526 137.384 134.951 135.3 135.802 134.185C136.654 133.069 138.763 131.775 142.13 130.302C145.728 128.691 147.652 127.618 147.911 127.06C148.161 126.502 148.29 125.376 148.29 123.661C148.29 121.525 148.152 120.135 147.865 119.483C147.587 118.841 147.116 118.515 146.459 118.515C145.709 118.515 145.247 118.788 145.071 119.336C144.886 119.872 144.794 121.293 144.794 123.577V127.86ZM148.29 133.469C146.524 134.932 145.497 136.153 145.219 137.142C144.932 138.131 144.794 139.542 144.794 141.394C144.794 143.52 144.914 144.877 145.164 145.498C145.404 146.119 145.894 146.424 146.625 146.424C147.319 146.424 147.763 146.182 147.976 145.698C148.189 145.214 148.29 143.951 148.29 141.888V133.469ZM173.867 112.011L173.479 117.399C175.079 113.526 177.392 111.485 180.416 111.253V125.65C178.409 125.65 176.929 125.955 175.986 126.576C175.042 127.197 174.468 128.049 174.246 129.154C174.034 130.249 173.923 132.785 173.923 136.763V152.928H162.989V112.011H173.867ZM194.116 102.981V109.485H182.849V102.981H194.116ZM194.116 112.011V152.928H182.849V112.011H194.116Z" fill="#1C6E28"/>
</svg>
