<svg width="375" height="448" viewBox="0 0 375 448" fill="none" xmlns="http://www.w3.org/2000/svg">
<path d="M333.388 448H120.053C120.053 448 142.309 428.083 146.923 428.083C151.537 428.083 168.094 426.173 169.722 426.173C171.079 426.173 183.836 408.438 186.822 406.256C189.807 404.073 210.435 402.163 212.606 402.163C214.778 402.163 234.048 390.431 239.477 392.341C244.905 394.251 266.619 404.619 269.604 407.893C272.59 410.894 275.304 418.534 276.661 419.898C278.018 421.262 293.76 421.262 298.103 422.899C302.717 424.809 333.388 448 333.388 448Z" fill="#774D38"/>
<path d="M345.33 248.555C334.744 235.459 321.445 224.273 306.788 216.361C300.274 212.814 293.217 209.812 285.889 208.994C278.561 208.175 266.618 212.541 260.647 217.452C257.119 234.095 265.533 253.739 279.103 263.289C292.674 272.838 309.231 276.112 325.516 277.749C341.801 279.386 358.358 279.932 373.828 284.843C362.7 274.475 355.101 260.56 345.33 248.555Z" fill="#98A835"/>
<path d="M352.115 271.201C352.115 271.201 298.645 234.641 260.918 217.179" stroke="#68822B" stroke-width="0.5" stroke-miterlimit="10" stroke-linecap="round" stroke-linejoin="round"/>
<path d="M152.624 132.054C155.609 123.05 156.423 113.773 157.238 104.224C158.052 94.9476 158.866 85.944 159.68 76.6675C157.238 81.3057 154.252 85.3983 150.995 89.4909C144.752 97.1303 137.153 103.406 130.91 111.045C114.896 130.144 107.297 156.336 110.282 181.437C127.11 167.795 145.567 153.062 152.624 132.054Z" fill="#98A835"/>
<path d="M153.71 91.9463C153.71 91.9463 120.868 152.789 110.012 181.437" stroke="#68822B" stroke-width="0.5" stroke-miterlimit="10" stroke-linecap="round" stroke-linejoin="round"/>
<path d="M30.4845 195.352C17.4564 202.991 6.59971 214.996 -1 228.638C12.0281 222.09 27.7703 224.818 41.6127 229.184C55.455 233.549 69.5688 239.006 84.2253 237.642C100.782 236.278 115.438 225.91 125.481 211.995C110.282 200.809 92.6393 189.35 74.4543 186.348C59.2549 184.166 43.784 187.713 30.4845 195.352Z" fill="#98A835"/>
<path d="M25.5977 213.632C25.5977 213.632 52.7395 190.441 125.48 211.995" stroke="#68822B" stroke-width="0.5" stroke-miterlimit="10" stroke-linecap="round" stroke-linejoin="round"/>
<path d="M131.452 271.747C123.309 283.206 119.238 297.666 120.595 311.854C132.537 300.94 148.008 293.847 157.237 280.478C163.479 271.747 166.465 260.56 165.922 249.374C152.351 252.375 139.323 260.288 131.452 271.747Z" fill="#98A835"/>
<path d="M128.738 296.848C128.738 296.848 150.995 263.562 165.651 249.647" stroke="#68822B" stroke-width="0.5" stroke-miterlimit="10" stroke-linecap="round" stroke-linejoin="round"/>
<path d="M335.015 137.238C327.144 149.788 317.916 161.247 307.602 171.615C297.288 181.983 285.889 190.714 274.218 199.445C262.547 208.175 250.604 216.906 239.476 227.001C233.776 232.185 228.619 237.642 223.734 243.644C221.563 246.373 219.391 249.374 217.491 252.375C216.406 249.101 215.049 245.827 213.691 242.553C207.72 227.547 201.206 213.087 198.763 197.535C196.049 181.983 195.778 165.613 195.235 149.515L191.707 51.5664H191.164L190.621 148.97C190.621 165.067 190.078 181.437 192.249 198.08C194.421 214.724 200.663 230.275 205.82 245.281C207.72 250.738 209.349 256.195 210.977 261.925C210.706 262.197 211.52 263.834 211.52 263.834C213.149 270.11 214.777 276.658 216.134 282.933C215.591 282.115 215.049 281.569 214.234 280.75C206.635 272.292 197.949 265.199 189.264 258.923C171.622 246.1 153.437 235.186 137.966 220.999C130.095 213.905 123.852 205.447 118.695 196.171C113.809 186.894 110.552 176.253 107.838 165.886C102.953 144.604 98.3387 123.05 93.7245 101.496H93.4531C97.253 123.323 100.51 144.877 104.581 166.704C106.753 177.618 109.738 188.531 114.352 198.626C119.238 208.721 125.752 217.998 133.623 225.91C149.094 241.462 167.279 253.467 183.564 266.836C200.121 279.932 214.777 295.484 220.477 314.582H220.748C221.563 322.767 222.105 330.953 222.377 339.138C223.463 371.06 221.291 403.255 219.12 435.722L234.862 436.541C235.948 404.073 236.762 371.333 234.319 338.592C233.776 329.588 232.691 320.312 231.334 311.308C231.334 311.308 231.334 307.761 230.519 306.124C228.619 293.847 225.905 281.569 222.648 269.564C225.362 263.289 228.891 257.286 232.962 251.557C237.033 245.827 241.648 240.37 246.533 235.186C256.576 224.819 267.432 215.269 278.56 205.72C289.689 196.171 300.817 186.076 310.588 174.889C320.359 163.703 328.773 151.152 336.101 138.056L335.015 137.238Z" fill="#B24E12"/>
<path d="M190.893 103.951C190.893 103.951 224.548 30.8308 311.674 6.82107C311.402 6.82107 209.892 -38.47 190.893 103.951Z" fill="#98A835"/>
<path d="M190.894 85.1258C190.894 85.1258 149.367 35.7421 99.1543 40.1075C99.1543 39.8347 172.437 -11.4588 190.894 85.1258Z" fill="#98A835"/>
<path d="M193.064 172.979C193.064 172.979 236.491 111.864 323.617 111.864C323.617 111.864 223.192 9.00381 193.064 172.979Z" fill="#98A835"/>
<path d="M235.135 354.144C235.135 354.144 264.177 324.404 300.547 335.045C300.547 335.318 254.405 288.39 235.135 354.144Z" fill="#98A835"/>
<path d="M99.6953 139.693C99.6953 139.693 78.5247 105.588 27.498 97.676C27.7695 97.676 89.3814 68.4824 99.6953 139.693Z" fill="#98A835"/>
<path d="M316.83 166.431C316.83 166.431 355.371 155.245 375.999 172.979C375.999 172.979 355.643 125.778 316.83 166.431Z" fill="#98A835"/>
<path d="M292.403 188.804C292.403 188.804 305.974 158.519 278.018 149.243C278.018 148.97 292.131 178.436 292.403 188.804Z" fill="#98A835"/>
<path d="M257.392 412.531C257.392 412.531 246.535 406.256 242.464 407.075C238.392 407.893 216.679 416.624 213.693 416.351C210.708 416.078 200.122 417.715 200.122 417.715L197.137 439.542L234.864 444.999L258.749 438.997L257.392 412.531Z" fill="#774D38"/>
<path d="M257.391 412.531C257.391 412.531 246.534 406.256 242.463 407.075C238.392 407.893 216.678 416.624 213.693 416.351C211.521 416.078 205.279 416.897 202.293 417.442" stroke="#2B2B2B" stroke-width="0.75" stroke-miterlimit="10" stroke-linecap="round" stroke-linejoin="round"/>
<g opacity="0.25">
<path d="M278.56 433.812C278.56 433.54 278.288 433.267 278.017 432.994L277.745 432.721C277.474 432.448 277.203 432.448 276.931 432.448C276.66 432.448 276.388 432.448 276.388 432.721C276.117 432.721 276.117 432.994 275.846 432.994C275.574 433.267 275.574 433.267 275.574 433.54C275.574 433.812 275.303 434.085 275.303 434.358C275.303 434.631 275.303 434.631 275.303 434.904C275.303 435.177 275.574 435.449 275.846 435.722L276.117 435.995C276.388 436.268 276.66 436.268 276.931 436.268C277.203 436.268 277.474 436.268 277.474 435.995C277.745 435.995 277.745 435.722 278.017 435.722C278.288 435.449 278.288 435.449 278.288 435.177C278.288 434.904 278.56 434.631 278.56 434.358V433.812Z" fill="#774D38"/>
<path d="M245.448 411.44C240.291 411.44 240.291 419.898 245.448 419.898C250.605 419.898 250.605 411.44 245.448 411.44Z" fill="#774D38"/>
<path d="M293.487 425.9C289.687 425.9 289.687 431.903 293.487 431.903C297.015 431.903 297.015 425.9 293.487 425.9Z" fill="#774D38"/>
<path d="M290.232 433.812C286.704 433.812 286.704 439.542 290.232 439.542C293.761 439.542 293.761 433.812 290.232 433.812Z" fill="#774D38"/>
<path d="M254.403 436.541C254.403 436.268 254.131 435.723 253.86 435.45C253.589 435.177 253.317 435.177 253.317 434.904C253.046 434.904 252.774 434.631 252.503 434.631C252.232 434.631 251.96 434.631 251.689 434.631C251.417 434.631 251.146 434.631 250.874 434.631C250.603 434.631 250.332 434.904 250.06 434.904C249.789 435.177 249.517 435.45 249.246 435.723C248.975 435.996 248.975 436.268 248.975 436.541C248.703 436.814 248.703 437.36 248.703 437.905C248.703 438.451 248.703 438.724 248.975 439.27C248.975 439.542 249.246 440.088 249.517 440.361L250.06 440.907C250.603 441.179 251.146 441.452 251.689 441.452C251.96 441.452 252.232 441.452 252.503 441.452C252.774 441.452 253.046 441.179 253.317 441.179C253.589 440.907 253.86 440.634 254.131 440.361C254.403 440.088 254.403 439.815 254.403 439.542C254.674 439.27 254.674 438.997 254.674 438.724C254.674 438.451 254.674 438.178 254.674 437.905C254.674 437.087 254.403 436.814 254.403 436.541Z" fill="#774D38"/>
<path d="M199.849 405.71C197.406 405.71 195.506 407.893 195.506 410.076C195.506 412.531 197.406 414.441 199.849 414.441C202.291 414.441 204.191 412.259 204.191 410.076C204.191 407.893 202.291 405.71 199.849 405.71Z" fill="#774D38"/>
<path d="M180.579 429.447C180.579 429.174 180.579 429.174 180.307 428.902C180.307 428.629 180.036 428.356 180.036 428.356C180.036 428.083 179.764 428.083 179.493 427.81C179.222 427.537 179.222 427.537 178.95 427.537C178.679 427.265 178.136 427.265 177.865 427.265C177.593 427.265 177.322 427.265 177.05 427.265C176.779 427.265 176.507 427.537 176.507 427.537C176.236 427.81 176.236 427.81 175.965 428.083C175.693 428.356 175.693 428.356 175.422 428.629C175.15 428.902 175.15 429.447 175.15 429.72C175.15 429.993 175.15 430.266 175.15 430.539C175.15 430.812 175.15 431.084 175.422 431.357C175.422 431.63 175.693 431.903 175.693 431.903C175.965 432.176 176.236 432.449 176.507 432.721C176.779 432.721 177.05 432.994 177.05 432.994C177.322 432.994 177.593 432.994 177.865 432.994C178.136 432.994 178.407 432.994 178.679 432.994C178.95 432.994 179.222 432.721 179.222 432.721C179.493 432.449 179.764 432.176 180.036 431.903C180.307 431.63 180.579 431.357 180.579 430.812V430.539C180.579 429.993 180.579 430.266 180.579 429.447Z" fill="#774D38"/>
<path d="M226.177 421.535C222.92 421.535 222.92 426.719 226.177 426.719C229.163 426.719 229.163 421.535 226.177 421.535Z" fill="#774D38"/>
<path d="M209.348 435.996C209.077 435.45 208.805 435.177 208.263 434.904C207.991 434.631 207.72 434.631 207.177 434.631C206.906 434.631 206.363 434.631 206.091 434.631C205.548 434.904 205.277 434.904 204.734 435.45C204.463 435.723 204.463 435.723 204.191 435.996C203.92 436.541 203.92 437.087 203.92 437.36C203.92 437.633 203.92 437.905 203.92 438.178C203.92 438.724 204.191 438.997 204.734 439.542C205.006 439.815 205.548 440.088 206.091 440.361C206.634 440.361 206.906 440.634 207.72 440.361C207.991 440.361 208.263 440.361 208.263 440.088C208.534 439.815 208.805 439.542 209.077 439.27C209.348 438.997 209.62 438.724 209.62 438.178C209.62 437.633 209.62 437.087 209.62 436.541C209.62 436.541 209.62 436.268 209.348 435.996Z" fill="#774D38"/>
<path d="M152.893 434.358C148.822 434.358 148.822 440.907 152.893 440.907C156.965 440.907 156.965 434.358 152.893 434.358Z" fill="#774D38"/>
<path d="M195.505 425.627C192.248 425.627 192.248 430.811 195.505 430.811C198.762 431.084 198.762 425.627 195.505 425.627Z" fill="#774D38"/>
<path d="M243.274 398.071C240.289 398.071 240.289 402.982 243.274 402.982C246.26 402.982 246.26 398.071 243.274 398.071Z" fill="#774D38"/>
<path d="M263.632 416.624C259.289 416.624 259.289 423.445 263.632 423.445C267.975 423.445 267.975 416.624 263.632 416.624Z" fill="#774D38"/>
<path d="M231.062 437.632C231.062 437.359 230.79 437.087 230.519 436.814L230.247 436.541C229.976 436.268 229.705 436.268 229.433 436.268C229.162 436.268 228.89 436.268 228.619 436.541C228.347 436.541 228.076 436.814 228.076 436.814C227.805 437.087 227.805 437.087 227.805 437.359C227.805 437.632 227.533 437.905 227.533 438.178C227.533 438.451 227.533 438.451 227.533 438.724C227.533 438.996 227.805 439.269 228.076 439.542L228.347 439.815C228.619 440.088 228.89 440.088 229.162 440.088C229.433 440.088 229.705 440.088 229.976 439.815C230.247 439.815 230.519 439.542 230.519 439.542C230.79 439.269 230.79 439.269 230.79 438.996C230.79 438.724 231.062 438.451 231.062 438.178C231.062 437.905 231.062 437.632 231.062 437.632Z" fill="#774D38"/>
</g>
</svg>
